<?xml version="1.0" encoding="UTF-8" standalone="no"?>
<!-- Created with Inkscape (http://www.inkscape.org/) -->

<svg
   width="205.05208mm"
   height="205.05208mm"
   viewBox="0 0 205.05208 205.05208"
   version="1.1"
   id="svg5"
   xml:space="preserve"
   xmlns="http://www.w3.org/2000/svg"
   xmlns:svg="http://www.w3.org/2000/svg"><defs
     id="defs2"><style
       id="style3075">.cls-1{fill:none;stroke:#000000;stroke-linejoin:round;stroke-width:2px;}</style></defs><g
     id="layer1"
     transform="translate(60.95397,62.048566)"><g
       data-name="Layer 24"
       id="Layer_24"
       transform="matrix(3.3072917,0,0,3.3072917,-64.261262,-65.355858)"
       style="stroke:#ffd300;stroke-opacity:1"><polyline
         class="cls-1"
         points="49 10 62 10 62 24 2 24 2 10 15 10"
         id="polyline3081"
         style="stroke:#ffd300;stroke-opacity:1" /><rect
         class="cls-1"
         height="38"
         width="56"
         x="4"
         y="24"
         id="rect3083"
         style="stroke:#ffd300;stroke-opacity:1" /><rect
         class="cls-1"
         height="16"
         width="34"
         x="15"
         y="2"
         id="rect3085"
         style="stroke:#ffd300;stroke-opacity:1" /><polyline
         class="cls-1"
         points="26 6 19 6 19 14 25 14 25 10 22 10"
         id="polyline3087"
         style="stroke:#ffd300;stroke-opacity:1" /><path
         class="cls-1"
         d="m 29,5 v 2 a 3,3 0 0 0 3,3 v 0 A 3,3 0 0 0 35,7 V 5"
         id="path3089"
         style="stroke:#ffd300;stroke-opacity:1" /><line
         class="cls-1"
         x1="32"
         x2="32"
         y1="10"
         y2="15"
         id="line3091"
         style="stroke:#ffd300;stroke-opacity:1" /><polyline
         class="cls-1"
         points="39 15 39 6 42 12 45 6 45 15"
         id="polyline3093"
         style="stroke:#ffd300;stroke-opacity:1" /><polyline
         class="cls-1"
         points="20 62 20 42 44 42 44 62"
         id="polyline3095"
         style="stroke:#ffd300;stroke-opacity:1" /><line
         class="cls-1"
         x1="32"
         x2="32"
         y1="42"
         y2="62"
         id="line3097"
         style="stroke:#ffd300;stroke-opacity:1" /><rect
         class="cls-1"
         height="10"
         width="48"
         x="8"
         y="28"
         id="rect3099"
         style="stroke:#ffd300;stroke-opacity:1" /><line
         class="cls-1"
         x1="24"
         x2="24"
         y1="28"
         y2="38"
         id="line3101"
         style="stroke:#ffd300;stroke-opacity:1" /><line
         class="cls-1"
         x1="40"
         x2="40"
         y1="28"
         y2="38"
         id="line3103"
         style="stroke:#ffd300;stroke-opacity:1" /><line
         class="cls-1"
         x1="11"
         x2="15"
         y1="35"
         y2="31"
         id="line3105"
         style="stroke:#ffd300;stroke-opacity:1" /><line
         class="cls-1"
         x1="17"
         x2="21"
         y1="35"
         y2="31"
         id="line3107"
         style="stroke:#ffd300;stroke-opacity:1" /><line
         class="cls-1"
         x1="27"
         x2="31"
         y1="35"
         y2="31"
         id="line3109"
         style="stroke:#ffd300;stroke-opacity:1" /><line
         class="cls-1"
         x1="33"
         x2="37"
         y1="35"
         y2="31"
         id="line3111"
         style="stroke:#ffd300;stroke-opacity:1" /><line
         class="cls-1"
         x1="43"
         x2="47"
         y1="35"
         y2="31"
         id="line3113"
         style="stroke:#ffd300;stroke-opacity:1" /><line
         class="cls-1"
         x1="49"
         x2="53"
         y1="35"
         y2="31"
         id="line3115"
         style="stroke:#ffd300;stroke-opacity:1" /><line
         class="cls-1"
         x1="28"
         x2="28"
         y1="49"
         y2="53"
         id="line3117"
         style="stroke:#ffd300;stroke-opacity:1" /><line
         class="cls-1"
         x1="36"
         x2="36"
         y1="49"
         y2="53"
         id="line3119"
         style="stroke:#ffd300;stroke-opacity:1" /></g></g></svg>
