<?xml version="1.0" encoding="UTF-8" standalone="no"?>
<!-- Created with Inkscape (http://www.inkscape.org/) -->

<svg
   width="211.66667mm"
   height="211.66667mm"
   viewBox="0 0 211.66667 211.66667"
   version="1.1"
   id="svg5"
   xml:space="preserve"
   xmlns:inkscape="http://www.inkscape.org/namespaces/inkscape"
   xmlns:sodipodi="http://sodipodi.sourceforge.net/DTD/sodipodi-0.dtd"
   xmlns="http://www.w3.org/2000/svg"
   xmlns:svg="http://www.w3.org/2000/svg"><sodipodi:namedview
     id="namedview7"
     pagecolor="#ffffff"
     bordercolor="#000000"
     borderopacity="0.25"
     inkscape:showpageshadow="2"
     inkscape:pageopacity="0.0"
     inkscape:pagecheckerboard="0"
     inkscape:deskcolor="#d1d1d1"
     inkscape:document-units="mm"
     showgrid="false" /><defs
     id="defs2" /><g
     inkscape:label="Layer 1"
     inkscape:groupmode="layer"
     id="layer1"
     transform="translate(140.86036,81.387388)"><g
       id="g1057"
       transform="matrix(3.3072917,0,0,3.3072917,-140.86036,-81.387388)"
       style="fill:#ffd300;fill-opacity:1;stroke:none;stroke-opacity:1">
	<path
   fill="#231f20"
   d="M 32,0 C 14.355,0 0,14.355 0,32 0,49.645 14.355,64 32,64 49.645,64 64,49.645 64,32 64,14.355 49.645,0 32,0 Z m 0,62 C 15.458,62 2,48.542 2,32 2,15.458 15.458,2 32,2 48.542,2 62,15.458 62,32 62,48.542 48.542,62 32,62 Z"
   id="path1049"
   style="fill:#ffd300;fill-opacity:1;stroke:none;stroke-opacity:1" />
	<path
   fill="#231f20"
   d="M 34.996,28.021 35,28.008 V 17 c 0,-1.654 -1.346,-3 -3,-3 -1.654,0 -3,1.346 -3,3 v 11 l 0.004,0.021 C 27.795,28.936 27,30.371 27,32 c 0,2.757 2.243,5 5,5 2.757,0 5,-2.243 5,-5 0,-1.629 -0.795,-3.064 -2.004,-3.979 z M 31,17 c 0,-0.552 0.448,-1 1,-1 0.552,0 1,0.448 1,1 V 27.102 C 32.677,27.035 32.343,27 32,27 c -0.343,0 -0.677,0.035 -1,0.102 z m 1,18 c -1.654,0 -3,-1.346 -3,-3 0,-1.654 1.346,-3 3,-3 1.654,0 3,1.346 3,3 0,1.654 -1.346,3 -3,3 z"
   id="path1051"
   style="fill:#ffd300;fill-opacity:1;stroke:none;stroke-opacity:1" />
	<path
   fill="#231f20"
   d="m 32.03,31 h -0.01 c -0.552,0 -0.994,0.447 -0.994,1 0,0.553 0.452,1 1.005,1 0.552,0 1,-0.447 1,-1 0,-0.553 -0.449,-1 -1.001,-1 z"
   id="path1053"
   style="fill:#ffd300;fill-opacity:1;stroke:none;stroke-opacity:1" />
	<path
   fill="#231f20"
   d="M 32,4 C 16.561,4 4,16.561 4,32 c 0,4.738 1.19,9.201 3.277,13.116 0.314,0.59 0.646,1.169 1.001,1.733 l 6.035,-3.485 C 14.792,43.089 14.955,42.478 14.679,42 14.403,41.521 13.792,41.356 13.312,41.634 L 9.011,44.117 V 44.116 C 8.267,42.711 7.651,41.229 7.17,39.687 l 1.904,-0.51 C 9.609,39.032 9.926,38.489 9.781,37.952 9.638,37.419 9.09,37.102 8.556,37.245 l -1.9,0.509 C 6.305,36.216 6.093,34.627 6.03,32.998 H 11 c 0.554,0 0.999,-0.447 1,-0.999 0,-0.554 -0.446,-1.001 -1.001,-1.001 H 6.025 C 6.087,29.37 6.3,27.78 6.65,26.242 l 1.907,0.511 C 9.092,26.896 9.639,26.583 9.782,26.046 9.926,25.514 9.608,24.965 9.075,24.821 L 7.161,24.31 C 7.64,22.766 8.264,21.287 9.008,19.879 l 4.307,2.486 c 0.479,0.276 1.088,0.112 1.365,-0.365 0.276,-0.479 0.113,-1.09 -0.367,-1.367 l -4.301,-2.482 c 0.857,-1.357 1.835,-2.63 2.921,-3.803 l 1.389,1.389 c 0.393,0.391 1.022,0.393 1.414,0 0.391,-0.39 0.391,-1.023 0,-1.414 l -1.389,-1.389 c 1.173,-1.087 2.447,-2.064 3.805,-2.923 l 2.483,4.303 c 0.276,0.479 0.887,0.641 1.365,0.366 0.479,-0.277 0.643,-0.888 0.365,-1.368 L 19.88,9.008 c 1.406,-0.744 2.886,-1.367 4.429,-1.846 l 0.513,1.914 c 0.145,0.534 0.689,0.852 1.225,0.707 0.533,-0.143 0.851,-0.69 0.707,-1.225 L 26.242,6.65 C 27.781,6.3 29.372,6.087 31.001,6.025 L 31,11.001 c 0,0.552 0.448,0.998 1,0.999 0.553,-10e-4 1,-0.447 1,-1.002 V 6.025 c 1.628,0.062 3.218,0.275 4.757,0.625 l -0.512,1.908 c -0.143,0.534 0.172,1.082 0.707,1.225 0.533,0.144 1.082,-0.173 1.225,-0.707 L 39.69,7.161 c 1.544,0.479 3.024,1.103 4.432,1.847 l -2.488,4.307 c -0.275,0.478 -0.11,1.089 0.367,1.364 0.479,0.276 1.09,0.113 1.367,-0.367 l 2.482,-4.3 c 1.357,0.857 2.631,1.835 3.803,2.922 l -1.39,1.389 c -0.391,0.391 -0.392,1.023 0,1.414 0.391,0.391 1.023,0.391 1.414,0 l 1.39,-1.389 c 1.087,1.173 2.064,2.445 2.922,3.803 l -4.304,2.483 c -0.478,0.276 -0.64,0.889 -0.364,1.365 0.276,0.479 0.888,0.643 1.368,0.365 l 4.304,-2.484 c 0.744,1.406 1.367,2.886 1.847,4.43 l -1.916,0.513 c -0.533,0.144 -0.851,0.69 -0.707,1.225 0.143,0.533 0.691,0.851 1.225,0.707 l 1.909,-0.512 c 0.35,1.54 0.563,3.129 0.625,4.758 H 53 c -0.553,0 -1,0.447 -1,1 0,0.553 0.447,1 1,1 h 4.969 c -0.062,1.629 -0.275,3.218 -0.626,4.756 l -1.902,-0.51 c -0.535,-0.141 -1.079,0.171 -1.225,0.707 -0.143,0.534 0.178,1.082 0.707,1.225 l 1.906,0.511 c -0.48,1.541 -1.097,3.023 -1.842,4.429 l -4.301,-2.483 c -0.479,-0.276 -1.09,-0.112 -1.366,0.366 -0.276,0.478 -0.113,1.089 0.366,1.366 l 6.035,3.484 c 0.354,-0.563 0.686,-1.143 1,-1.732 C 58.81,41.202 60,36.739 60,32 60,16.561 47.439,4 32,4 Z"
   id="path1055"
   style="fill:#ffd300;fill-opacity:1;stroke:none;stroke-opacity:1" />
</g></g></svg>
